<?xml version="1.0" encoding="UTF-8"?>
<svg version="1.1" xmlns="http://www.w3.org/2000/svg" width="92" height="74">
<path d="M0 0 C30.36 0 60.72 0 92 0 C92 24.42 92 48.84 92 74 C61.64 74 31.28 74 0 74 C0 49.58 0 25.16 0 0 Z " fill="#FDFDFD" transform="translate(0,0)"/>
<path d="M0 0 C1.32 0 2.64 0 4 0 C4.83086178 2.16779097 5.66064155 4.33598812 6.48925781 6.50463867 C7.20970813 8.38951107 7.93173506 10.27378154 8.65527344 12.1574707 C10.48329527 16.93620174 12.2698133 21.72152994 13.94921875 26.5546875 C14.25335693 27.41924561 14.55749512 28.28380371 14.87084961 29.17456055 C15.44751991 30.82289917 16.01256752 32.47535994 16.56469727 34.13208008 C18.02160297 38.44005326 18.02160297 38.44005326 21.203125 41.51953125 C21.79609375 41.67808594 22.3890625 41.83664063 23 42 C23 42.66 23 43.32 23 44 C16.73 44 10.46 44 4 44 C4.33 43.01 4.66 42.02 5 41 C5.99 41 6.98 41 8 41 C7.79318604 40.40050537 7.58637207 39.80101074 7.37329102 39.18334961 C6.42990362 36.43690277 5.49614404 33.68727355 4.5625 30.9375 C4.23701172 29.99455078 3.91152344 29.05160156 3.57617188 28.08007812 C1.87037165 23.03301972 0.52258875 18.30685192 0 13 C-0.66 13 -1.32 13 -2 13 C-2.10441406 13.65097656 -2.20882812 14.30195313 -2.31640625 14.97265625 C-3.20778809 18.9202044 -4.56046616 22.63662241 -5.9375 26.4375 C-6.46792142 27.9151947 -6.99787792 29.39305638 -7.52734375 30.87109375 C-7.7785498 31.57089355 -8.02975586 32.27069336 -8.28857422 32.99169922 C-9.22986313 35.64888609 -10.12132787 38.32153569 -11 41 C-9.68 41.33 -8.36 41.66 -7 42 C-7 42.66 -7 43.32 -7 44 C-11.62 44 -16.24 44 -21 44 C-20.67 43.01 -20.34 42.02 -20 41 C-19.03855072 40.52997055 -19.03855072 40.52997055 -18.05767822 40.05044556 C-15.50924549 38.74946962 -15.12533514 37.81333785 -14.07714844 35.19287109 C-13.75711853 34.41221283 -13.43708862 33.63155457 -13.10736084 32.82723999 C-12.77802551 31.98448517 -12.44869019 31.14173035 -12.109375 30.2734375 C-11.75989807 29.41062164 -11.41042114 28.54780579 -11.050354 27.65884399 C-9.93735671 24.9025404 -8.84353328 22.13907579 -7.75 19.375 C-6.99864638 17.50470546 -6.24605696 15.63490688 -5.4921875 13.765625 C-3.64707043 9.18271445 -1.81911269 4.59329115 0 0 Z " fill="#0A0A0A" transform="translate(57,15)"/>
<path d="M0 0 C6.27 0 12.54 0 19 0 C19 0.66 19 1.32 19 2 C17.68 2.33 16.36 2.66 15 3 C15.36351562 4.01368652 15.36351562 4.01368652 15.734375 5.04785156 C16.82942998 8.11295258 17.91480619 11.18139454 19 14.25 C19.3815625 15.31347656 19.763125 16.37695312 20.15625 17.47265625 C20.5171875 18.49746094 20.878125 19.52226563 21.25 20.578125 C21.58515625 21.52075195 21.9203125 22.46337891 22.265625 23.43457031 C23 26 23 26 23 30 C23.66 30 24.32 30 25 30 C25.14695312 29.47535156 25.29390625 28.95070313 25.4453125 28.41015625 C27.9339739 19.81426257 30.98154094 11.42042625 34 3 C32.68 2.67 31.36 2.34 30 2 C30 1.34 30 0.68 30 0 C34.62 0 39.24 0 44 0 C44 0.66 44 1.32 44 2 C42.85446655 2.60992798 42.85446655 2.60992798 41.68579102 3.23217773 C38.23195849 5.50553482 37.54387265 7.46742544 36.02734375 11.28515625 C35.65265709 12.20874184 35.65265709 12.20874184 35.270401 13.15098572 C34.4774171 15.1157414 33.70723267 17.08853543 32.9375 19.0625 C32.41750335 20.36192446 31.89603151 21.66075962 31.37304688 22.95898438 C29.89769706 26.6324149 28.44861355 30.31594159 27 34 C26.21122636 35.97849959 25.42108593 37.95645546 24.62890625 39.93359375 C24.31123291 40.72693115 23.99355957 41.52026855 23.66625977 42.33764648 C23.44639404 42.88622314 23.22652832 43.4347998 23 44 C21.68 44 20.36 44 19 44 C18.74307373 43.28457031 18.48614746 42.56914063 18.22143555 41.83203125 C17.04402983 38.55448141 15.86577144 35.27723871 14.6875 32 C14.28337891 30.87464844 13.87925781 29.74929687 13.46289062 28.58984375 C11.34848547 22.71076601 9.20976407 16.84389413 7 11 C6.76829102 10.35434082 6.53658203 9.70868164 6.29785156 9.04345703 C5.17880011 6.12396623 4.47157074 4.30988934 1.8125 2.5625 C1.214375 2.376875 0.61625 2.19125 0 2 C0 1.34 0 0.68 0 0 Z " fill="#080808" transform="translate(11,15)"/>
<path d="M0 0 C-2.35667069 7.41015011 -5.10686488 14.6436973 -8.02368164 21.84936523 C-8.55191997 23.16399366 -9.07237649 24.48177434 -9.58520508 25.80249023 C-10.33697551 27.73674037 -11.11288972 29.65968941 -11.89453125 31.58203125 C-12.34675049 32.71874268 -12.79896973 33.8554541 -13.26489258 35.02661133 C-15.33779496 38.57886658 -17.41757341 40.04570498 -21 42 C-21.66 42 -22.32 42 -23 42 C-20.64332931 34.58984989 -17.89313512 27.3563027 -14.97631836 20.15063477 C-14.44808003 18.83600634 -13.92762351 17.51822566 -13.41479492 16.19750977 C-12.66302449 14.26325963 -11.88711028 12.34031059 -11.10546875 10.41796875 C-10.65324951 9.28125732 -10.20103027 8.1445459 -9.73510742 6.97338867 C-7.58586092 3.29030536 -4.54079124 0 0 0 Z " fill="#EFEFEF" transform="translate(57,16)"/>
</svg>
