<svg xmlns="http://www.w3.org/2000/svg" width="auto" height="auto">
    <rect width="31" height="23" x="0.5" y="4.5" fill="#F6ECFC" stroke="#E0C1F4" rx="2.5"></rect>
    <path fill-rule="evenodd" d="M18.842 3.227a1 1 0 1 0-.445 1.95l1.747.399L9.6 12.959a4 4 0 1 0 0 6.081l10.546 7.385-1.748.399a1 1 0 1 0 .445 1.95l3.945-.9a1 1 0 0 0 .77-1.1l-.503-4.014a1 1 0 0 0-1.985.248l.223 1.779-10.545-7.384a4 4 0 0 0 .127-.403h14.712l-1.293 1.293a1 1 0 1 0 1.414 1.414l3-3a1 1 0 0 0 0-1.414l-3-3a1 1 0 0 0-1.414 1.414L25.586 15H10.874a4 4 0 0 0-.127-.403l10.544-7.383-.222 1.778a1 1 0 0 0 1.984.249l.503-4.015a1 1 0 0 0-.77-1.099zM9 16a2 2 0 1 1-4 0 2 2 0 0 1 4 0" clip-rule="evenodd"></path>
</svg>